<svg width="36" height="37" viewBox="0 0 36 37" fill="none" xmlns="http://www.w3.org/2000/svg">
<g clip-path="url(#clip0_755_4357)">
<path d="M31.5669 5.39648V27.5198C31.5669 28.6933 31.0424 29.8187 30.1089 30.6485C29.1754 31.4783 27.9093 31.9444 26.5891 31.9444C25.269 31.9444 24.0028 31.4783 23.0693 30.6485C22.1358 29.8187 21.6114 28.6933 21.6114 27.5198V5.39648M19.9521 5.39648H33.2261H19.9521Z" fill="white"/>
<path d="M31.5669 5.39648V27.5198C31.5669 28.6933 31.0424 29.8187 30.1089 30.6485C29.1754 31.4783 27.9093 31.9444 26.5891 31.9444C25.269 31.9444 24.0028 31.4783 23.0693 30.6485C22.1358 29.8187 21.6114 28.6933 21.6114 27.5198V5.39648M19.9521 5.39648H33.2261" stroke="white" stroke-width="3" stroke-linecap="round" stroke-linejoin="round"/>
<path d="M22.1641 17.5649H31.0134V7.60938H22.1641V17.5649Z" fill="#115AFB"/>
<path d="M13.8681 5.39648V27.5198C13.8681 28.6933 13.3437 29.8187 12.4102 30.6485C11.4767 31.4783 10.2106 31.9444 8.8904 31.9444C7.57023 31.9444 6.30412 31.4783 5.37061 30.6485C4.4371 29.8187 3.91266 28.6933 3.91266 27.5198V5.39648M2.25342 5.39648H15.5274" stroke="white" stroke-width="3" stroke-linecap="round" stroke-linejoin="round"/>
</g>
<defs>
<clipPath id="clip0_755_4357">
<rect width="35.3973" height="35.3973" fill="white" transform="translate(0.0410156 0.972656)"/>
</clipPath>
</defs>
</svg>
