<svg width="149" height="50" viewBox="0 0 149 50" fill="none" xmlns="http://www.w3.org/2000/svg">
<path d="M137.135 0.000162499H11.8721C11.4155 0.000162499 10.9644 0.000162499 10.509 0.00266249C10.1278 0.00516248 9.74965 0.012425 9.36479 0.0185374C8.52869 0.0284147 7.69455 0.102257 6.86963 0.239424C6.04587 0.379577 5.24791 0.643805 4.50274 1.02317C3.75849 1.40575 3.07845 1.90287 2.48728 2.49649C1.89301 3.08845 1.39764 3.77267 1.02022 4.52285C0.641752 5.27153 0.379324 6.07382 0.241995 6.90199C0.103361 7.72912 0.028761 8.56579 0.0188641 9.40448C0.00730905 9.78773 0.0060888 10.1723 0 10.5556V39.4483C0.0060888 39.8364 0.00730905 40.2124 0.0188641 40.6007C0.028764 41.4393 0.103364 42.2759 0.241995 43.103C0.378945 43.9317 0.641388 44.7344 1.02022 45.4834C1.39747 46.2311 1.89291 46.9126 2.48728 47.5013C3.0762 48.0975 3.75669 48.595 4.50274 48.9746C5.2479 49.355 6.04578 49.6208 6.86963 49.7631C7.69469 49.8992 8.52874 49.9731 9.36479 49.9841C9.74965 49.9926 10.1278 49.9975 10.509 49.9975C10.9644 50 11.4156 50 11.8721 50H137.135C137.582 50 138.037 50 138.484 49.9975C138.864 49.9975 139.253 49.9926 139.632 49.9841C140.467 49.9737 141.299 49.8998 142.123 49.7631C142.949 49.6198 143.75 49.3541 144.499 48.9746C145.244 48.5948 145.924 48.0973 146.512 47.5013C147.105 46.9103 147.602 46.2293 147.983 45.4834C148.359 44.7339 148.619 43.9312 148.754 43.103C148.893 42.2758 148.97 41.4394 148.985 40.6007C148.99 40.2124 148.99 39.8364 148.99 39.4483C149 38.9942 149 38.5425 149 38.081V11.9203C149 11.4625 149 11.0084 148.99 10.5556C148.99 10.1723 148.99 9.78773 148.985 9.40443C148.97 8.56566 148.893 7.72918 148.754 6.90194C148.619 6.07424 148.359 5.27202 147.983 4.5228C147.215 3.01915 145.996 1.79519 144.499 1.02306C143.75 0.64462 142.949 0.380462 142.123 0.239312C141.299 0.101541 140.467 0.0276721 139.632 0.0183624C139.253 0.0122625 138.864 0.00493748 138.484 0.00249999C138.037 0 137.582 0 137.135 0V0.000162499Z" fill="#A6A6A6"/>
<path d="M10.4392 48.9975C10.0594 48.9975 9.68878 48.9926 9.31193 48.9841C8.53127 48.9738 7.75243 48.9054 6.98181 48.7794C6.26324 48.6548 5.56714 48.4231 4.91647 48.0919C4.27177 47.7634 3.68374 47.3327 3.17493 46.8162C2.65875 46.3058 2.22901 45.7139 1.90273 45.0638C1.57286 44.4095 1.34457 43.7082 1.22581 42.9843C1.09757 42.2065 1.02818 41.4199 1.01825 40.6315C1.01035 40.3669 1 39.4857 1 39.4857V10.4983C1 10.4983 1.01102 9.63068 1.01831 9.37578C1.02782 8.5886 1.0968 7.80329 1.22467 7.02664C1.34364 6.30074 1.57211 5.5974 1.90216 4.94098C2.22724 4.29137 2.65459 3.69898 3.16766 3.18678C3.68016 2.66971 4.27006 2.23677 4.91586 1.90375C5.56503 1.57358 6.25982 1.34349 6.97693 1.22119C7.75009 1.09391 8.53163 1.02509 9.315 1.01532L10.4399 1H138.554L139.692 1.01594C140.469 1.02522 141.243 1.09342 142.009 1.21996C142.733 1.34379 143.435 1.57549 144.092 1.90742C145.386 2.57857 146.439 3.64038 147.103 4.94404C147.427 5.59594 147.652 6.29354 147.77 7.01316C147.899 7.79618 147.972 8.58767 147.987 9.3813C147.99 9.73667 147.99 10.1184 147.99 10.4983C148 10.9688 148 11.4167 148 11.8683V38.1304C148 38.5862 148 39.0311 147.99 39.4796C147.99 39.8876 147.99 40.2614 147.985 40.6462C147.971 41.4256 147.9 42.203 147.772 42.972C147.656 43.7012 147.429 44.4079 147.099 45.0676C146.77 45.7106 146.343 46.2974 145.833 46.8064C145.324 47.3256 144.735 47.7589 144.088 48.0895C143.434 48.4233 142.733 48.6558 142.009 48.7794C141.239 48.9061 140.46 48.9745 139.679 48.9841C139.314 48.9926 138.931 48.9975 138.56 48.9975L137.209 49L10.4392 48.9975Z" fill="black"/>
<path d="M45.6127 14.0139V13.1139H46.5439C46.9406 13.1139 47.2622 13.008 47.5086 12.7963C47.7582 12.5845 47.883 12.3118 47.883 11.9781C47.883 11.6444 47.7662 11.3813 47.5326 11.1888C47.3022 10.9963 46.9886 10.9 46.5919 10.9C46.1887 10.9 45.8623 10.9995 45.6127 11.1984C45.3663 11.3941 45.2271 11.6652 45.1951 12.0118H44.1776C44.2128 11.3893 44.4496 10.8984 44.888 10.539C45.3263 10.1797 45.9055 10 46.6255 10C47.307 10 47.8638 10.1749 48.2958 10.5246C48.7277 10.8711 48.9437 11.3187 48.9437 11.8674C48.9437 12.2556 48.8237 12.5973 48.5838 12.8925C48.347 13.1845 48.0366 13.377 47.6526 13.4701V13.5086C48.1166 13.5663 48.483 13.7492 48.7517 14.0572C49.0205 14.3652 49.1549 14.7551 49.1549 15.2267C49.1549 15.8107 48.9117 16.3 48.4254 16.6947C47.939 17.0861 47.3326 17.2818 46.6063 17.2818C45.8543 17.2818 45.2399 17.0957 44.7632 16.7235C44.2864 16.3513 44.032 15.8588 44 15.246H45.0367C45.0687 15.5861 45.2255 15.8588 45.5071 16.0642C45.7919 16.2663 46.1567 16.3674 46.6015 16.3674C47.0334 16.3674 47.3822 16.2567 47.6478 16.0353C47.9166 15.8139 48.051 15.5267 48.051 15.1738C48.051 14.8112 47.9198 14.5273 47.6574 14.3219C47.3982 14.1166 47.0366 14.0139 46.5727 14.0139H45.6127Z" fill="white"/>
<path d="M53.1159 16.377C53.4806 16.377 53.7862 16.2663 54.0326 16.0449C54.2822 15.8203 54.407 15.5444 54.407 15.2171V14.8176L53.1639 14.8947C52.8535 14.9171 52.6135 14.9941 52.4439 15.1257C52.2775 15.254 52.1943 15.4273 52.1943 15.6455C52.1943 15.8668 52.2775 16.0449 52.4439 16.1797C52.6135 16.3112 52.8375 16.377 53.1159 16.377ZM52.8279 17.2C52.3319 17.2 51.9271 17.0588 51.6135 16.7765C51.3032 16.4941 51.148 16.1267 51.148 15.6743C51.148 15.2316 51.3112 14.8802 51.6375 14.6203C51.9639 14.3572 52.4263 14.2096 53.0247 14.1775L54.407 14.0957V13.7059C54.407 13.4235 54.3174 13.2037 54.1382 13.0465C53.959 12.8861 53.711 12.8059 53.3942 12.8059C53.0999 12.8059 52.8599 12.8717 52.6743 13.0032C52.4919 13.1348 52.3767 13.316 52.3287 13.5471H51.3496C51.3784 13.0786 51.5799 12.6968 51.9543 12.4016C52.3287 12.1064 52.8215 11.9588 53.4326 11.9588C54.0438 11.9588 54.5302 12.1096 54.8918 12.4112C55.2565 12.7128 55.4389 13.1171 55.4389 13.6241V17.1134H54.4454V16.2807H54.4214C54.2774 16.5599 54.0582 16.7829 53.7638 16.9497C53.4726 17.1166 53.1607 17.2 52.8279 17.2Z" fill="white"/>
<path d="M61.1518 12.8733H58.8383V17.1134H57.8064V12.0503H61.1518V12.8733Z" fill="white"/>
<path d="M65.9335 11.9684C66.5766 11.9684 67.0918 12.2043 67.479 12.6759C67.8662 13.1476 68.0598 13.7829 68.0598 14.5818C68.0598 15.3807 67.8678 16.0176 67.4838 16.4925C67.0998 16.9642 66.5894 17.2 65.9527 17.2C65.5943 17.2 65.2759 17.1182 64.9975 16.9545C64.7223 16.7909 64.5111 16.5663 64.364 16.2807H64.34V18.7882H63.3032V12.0503H64.3064V12.9214H64.3256C64.4759 12.6262 64.6919 12.3936 64.9735 12.2235C65.2551 12.0535 65.5751 11.9684 65.9335 11.9684ZM65.6599 16.3193C66.0695 16.3193 66.3942 16.1636 66.6342 15.8524C66.8742 15.538 66.9942 15.1144 66.9942 14.5818C66.9942 14.0524 66.8742 13.6305 66.6342 13.316C66.3942 13.0016 66.0695 12.8444 65.6599 12.8444C65.2631 12.8444 64.9431 13.0032 64.6999 13.3209C64.4567 13.6385 64.3352 14.0588 64.3352 14.5818C64.3352 15.108 64.4551 15.5299 64.6951 15.8476C64.9383 16.162 65.2599 16.3193 65.6599 16.3193Z" fill="white"/>
<path d="M70.6 19C70.4048 19 70.264 18.992 70.1776 18.9759V18.1337C70.2288 18.1465 70.3408 18.1529 70.5136 18.1529C70.7568 18.1529 70.9471 18.0968 71.0847 17.9845C71.2223 17.8754 71.3311 17.6909 71.4111 17.431C71.4111 17.4278 71.4271 17.3749 71.4591 17.2722L71.5023 17.1182L69.6784 12.0503H70.8016L72.0831 16.1701H72.0975L73.379 12.0503H74.4734L72.5775 17.3781C72.3631 17.9909 72.1119 18.4144 71.8239 18.6487C71.5359 18.8829 71.1279 19 70.6 19Z" fill="white"/>
<path d="M78.2279 17.2096C77.6359 17.2096 77.1496 17.0733 76.7688 16.8005C76.3912 16.5278 76.18 16.1588 76.1352 15.6936H77.1576C77.2088 15.9118 77.3272 16.0802 77.5127 16.1989C77.6983 16.3144 77.9367 16.3722 78.2279 16.3722C78.5543 16.3722 78.8071 16.3032 78.9863 16.1652C79.1687 16.0273 79.2598 15.8444 79.2598 15.6166C79.2598 15.1257 78.9175 14.8802 78.2327 14.8802H77.4935V14.115H78.2183C78.8071 14.115 79.1015 13.8936 79.1015 13.4508C79.1015 13.2487 79.0279 13.0882 78.8807 12.9695C78.7335 12.8476 78.5175 12.7866 78.2327 12.7866C77.9543 12.7866 77.7271 12.8428 77.5511 12.9551C77.3752 13.0674 77.2696 13.223 77.2344 13.4219H76.2408C76.2952 12.9695 76.4984 12.6134 76.8504 12.3535C77.2056 12.0904 77.6647 11.9588 78.2279 11.9588C78.8295 11.9588 79.2934 12.084 79.6198 12.3342C79.9494 12.5813 80.1142 12.9198 80.1142 13.3497C80.1142 13.6096 80.0406 13.839 79.8934 14.038C79.7462 14.2369 79.551 14.3668 79.3078 14.4278V14.4663C79.6278 14.5401 79.871 14.6765 80.0374 14.8754C80.207 15.0743 80.2918 15.3198 80.2918 15.6118C80.2918 16.093 80.103 16.4797 79.7254 16.7717C79.351 17.0636 78.8519 17.2096 78.2279 17.2096Z" fill="white"/>
<path d="M83.504 17.1134H82.4816V12.0503H83.504V15.5973H83.5424L85.875 12.0503H86.8974V17.1134H85.875V13.5567H85.8366L83.504 17.1134Z" fill="white"/>
<path d="M93.1286 12.0503V12.8733H91.5447V17.1134H90.5127V12.8733H88.9288V12.0503H93.1286Z" fill="white"/>
<path d="M98.0639 13.162C97.8367 12.9182 97.5439 12.7963 97.1855 12.7963C96.8272 12.7963 96.5296 12.9198 96.2928 13.1668C96.056 13.4107 95.9248 13.7267 95.8992 14.115H98.4239C98.4111 13.7235 98.2911 13.4059 98.0639 13.162ZM98.4191 15.6262H99.403C99.3294 16.0914 99.0926 16.4717 98.6927 16.7668C98.2927 17.062 97.8047 17.2096 97.2287 17.2096C96.4896 17.2096 95.9072 16.977 95.4816 16.5118C95.0592 16.0433 94.8481 15.408 94.8481 14.6059C94.8481 13.8102 95.0592 13.1701 95.4816 12.6856C95.9072 12.2011 96.4752 11.9588 97.1855 11.9588C97.8831 11.9588 98.4367 12.1882 98.8462 12.6471C99.2558 13.1027 99.4606 13.7155 99.4606 14.4856V14.8417H95.8944V14.9043C95.8944 15.3471 96.0176 15.7016 96.264 15.9679C96.5104 16.2342 96.84 16.3674 97.2527 16.3674C97.5439 16.3674 97.7935 16.3 98.0015 16.1652C98.2095 16.0305 98.3487 15.8508 98.4191 15.6262Z" fill="white"/>
<path d="M106.984 12.8059H105.923V14.1342H106.883C107.469 14.1342 107.762 13.9096 107.762 13.4604C107.762 13.2519 107.694 13.0914 107.56 12.9791C107.426 12.8636 107.234 12.8059 106.984 12.8059ZM106.951 14.861H105.923V16.3578H107.066C107.36 16.3578 107.584 16.2952 107.738 16.1701C107.891 16.0417 107.968 15.8556 107.968 15.6118C107.968 15.1112 107.629 14.861 106.951 14.861ZM104.901 17.1134V12.0503H107.195C107.688 12.0503 108.074 12.1658 108.352 12.3968C108.634 12.6246 108.774 12.939 108.774 13.3401C108.774 13.6032 108.691 13.8406 108.525 14.0524C108.362 14.261 108.158 14.3877 107.915 14.4326V14.4711C108.242 14.516 108.504 14.646 108.702 14.861C108.901 15.0727 109 15.3374 109 15.6551C109 16.1011 108.84 16.4556 108.52 16.7187C108.203 16.9818 107.771 17.1134 107.224 17.1134H104.901Z" fill="white"/>
<path d="M31.2102 25.0421C31.2241 23.9813 31.512 22.9412 32.0469 22.0185C32.5818 21.0959 33.3464 20.3207 34.2695 19.7651C33.6831 18.9451 32.9094 18.2703 32.01 17.7943C31.1105 17.3183 30.1101 17.0541 29.0881 17.0228C26.9081 16.7988 24.7946 18.2999 23.6837 18.2999C22.5513 18.2999 20.8409 17.045 18.9991 17.0821C17.8078 17.1198 16.6467 17.459 15.6291 18.0665C14.6114 18.6741 13.7719 19.5294 13.1923 20.5491C10.6815 24.8047 12.5543 31.0591 14.9594 34.499C16.1627 36.1834 17.5691 38.065 19.4092 37.9983C21.2099 37.9252 21.8825 36.8742 24.0561 36.8742C26.2095 36.8742 26.8405 37.9983 28.718 37.9559C30.6502 37.9251 31.8677 36.2639 33.0288 34.5635C33.8933 33.3633 34.5586 32.0368 35 30.6332C33.8774 30.1683 32.9194 29.3903 32.2455 28.396C31.5716 27.4018 31.2115 26.2353 31.2102 25.0421Z" fill="white"/>
<path d="M27.4521 15.171C28.565 14.0069 29.1132 12.5107 28.9805 11C27.2803 11.1556 25.7097 11.8637 24.5818 12.9831C24.0304 13.53 23.608 14.1662 23.3389 14.8554C23.0698 15.5446 22.9592 16.2733 23.0134 16.9997C23.8638 17.0074 24.7052 16.8468 25.474 16.53C26.2429 16.2132 26.9192 15.7486 27.4521 15.171Z" fill="white"/>
<path d="M52.9776 33.9457H46.9804L45.5402 38H43L48.6804 23H51.3196L57 38H54.4165L52.9776 33.9457ZM47.6015 32.0748H52.3552L50.0118 25.4949H49.9462L47.6015 32.0748Z" fill="white"/>
<path d="M69 32.7106C69 36.1854 67.0577 38.4179 64.1267 38.4179C63.3842 38.4551 62.6458 38.2913 61.996 37.9453C61.3462 37.5993 60.8112 37.0851 60.4525 36.4616H60.397V42H58V27.1191H60.3202V28.9789H60.3643C60.7396 28.3583 61.2835 27.8468 61.9383 27.4987C62.593 27.1506 63.3341 26.9789 64.0826 27.0021C67.0463 27.0021 69 29.2454 69 32.7106ZM66.5362 32.7106C66.5362 30.4467 65.3144 28.9584 63.4503 28.9584C61.6188 28.9584 60.3869 30.4781 60.3869 32.7106C60.3869 34.9636 61.6188 36.4724 63.4503 36.4724C65.3145 36.4724 66.5362 34.9949 66.5362 32.7106Z" fill="white"/>
<path d="M81 32.7106C81 36.1854 79.2343 38.4179 76.5697 38.4179C75.8947 38.4551 75.2234 38.2913 74.6327 37.9453C74.042 37.5993 73.5557 37.0851 73.2295 36.4615H73.1791V42H71V27.119H73.1092V28.9789H73.1493C73.4905 28.3583 73.985 27.8467 74.5802 27.4987C75.1754 27.1506 75.8491 26.9789 76.5296 27.0021C79.224 27.0021 81 29.2454 81 32.7106ZM78.7602 32.7106C78.7602 30.4467 77.6495 28.9584 75.9548 28.9584C74.2898 28.9584 73.17 30.4781 73.17 32.7106C73.17 34.9636 74.2898 36.4724 75.9548 36.4724C77.6495 36.4724 78.7602 34.9949 78.7602 32.7106H78.7602Z" fill="white"/>
<path d="M89.3961 33.4278C89.5695 34.9633 91.0763 35.9714 93.1353 35.9714C95.1083 35.9714 96.5277 34.9632 96.5277 33.5787C96.5277 32.3769 95.6716 31.6573 93.6446 31.1641L91.6175 30.6807C88.7454 29.9939 87.4121 28.6643 87.4121 26.5066C87.4121 23.835 89.7639 22 93.1034 22C96.4084 22 98.6741 23.835 98.7503 26.5066H96.3875C96.246 24.9613 94.9557 24.0286 93.0701 24.0286C91.1845 24.0286 89.8942 24.9723 89.8942 26.3458C89.8942 27.4405 90.7183 28.0847 92.7343 28.5778L94.4576 28.9966C97.6667 29.7479 99 31.0241 99 33.2889C99 36.1857 96.6691 38 92.9619 38C89.4932 38 87.1513 36.2283 87 33.4277L89.3961 33.4278Z" fill="white"/>
<path d="M103.894 24V26.6666H106V28.4982H103.894V34.7101C103.894 35.6751 104.316 36.1248 105.241 36.1248C105.491 36.1204 105.741 36.1025 105.989 36.0713V37.8919C105.573 37.9711 105.15 38.0069 104.727 37.9989C102.485 37.9989 101.61 37.142 101.61 34.9568V28.4982H100V26.6666H101.61V24H103.894Z" fill="white"/>
<path d="M107 32.5C107 29.1224 109.149 27 112.499 27C115.861 27 118 29.1224 118 32.5C118 35.8868 115.873 38 112.499 38C109.127 38 107 35.8868 107 32.5ZM115.575 32.5C115.575 30.1831 114.428 28.8156 112.499 28.8156C110.571 28.8156 109.425 30.1935 109.425 32.5C109.425 34.8262 110.571 36.1833 112.499 36.1833C114.428 36.1833 115.575 34.8262 115.575 32.5H115.575Z" fill="white"/>
<path d="M120 27.1158H122.297V28.9684H122.353C122.508 28.3898 122.873 27.8784 123.387 27.5203C123.901 27.1622 124.533 26.9791 125.175 27.0019C125.452 27.001 125.729 27.029 126 27.0853V29.175C125.65 29.0757 125.284 29.0301 124.918 29.04C124.568 29.0268 124.219 29.084 123.895 29.2077C123.572 29.3314 123.281 29.5186 123.042 29.7565C122.804 29.9944 122.624 30.2774 122.514 30.5859C122.405 30.8945 122.369 31.2214 122.408 31.5441V38H120L120 27.1158Z" fill="white"/>
<path d="M136.862 34.7139C136.53 36.6626 134.401 38 131.677 38C128.174 38 126 35.9077 126 32.5509C126 29.1838 128.186 27 131.573 27C134.905 27 137 29.0402 137 32.2951V33.05H128.495V33.1832C128.456 33.5782 128.511 33.9762 128.658 34.3507C128.804 34.7252 129.039 35.0676 129.345 35.3552C129.651 35.6428 130.023 35.869 130.435 36.0187C130.847 36.1685 131.29 36.2384 131.734 36.2238C132.319 36.2726 132.905 36.152 133.406 35.8799C133.907 35.6079 134.296 35.1989 134.515 34.7139L136.862 34.7139ZM128.507 31.51H134.527C134.549 31.1548 134.489 30.7993 134.35 30.4659C134.21 30.1324 133.995 29.8283 133.718 29.5724C133.441 29.3166 133.107 29.1146 132.738 28.9792C132.369 28.8438 131.972 28.7778 131.573 28.7855C131.171 28.7833 130.772 28.8523 130.399 28.9883C130.027 29.1244 129.688 29.3248 129.403 29.5781C129.118 29.8314 128.892 30.1326 128.738 30.4641C128.584 30.7957 128.506 31.1512 128.507 31.51V31.51Z" fill="white"/>
</svg>
