<svg width="100" height="100" viewBox="0 0 100 100" fill="none" xmlns="http://www.w3.org/2000/svg">
<rect x="0.5" y="0.5" width="99" height="99" rx="13.5" fill="white" stroke="#E3F1FF"/>
<mask id="mask0_850_8012" style="mask-type:alpha" maskUnits="userSpaceOnUse" x="0" y="0" width="100" height="100">
<rect x="0.5" y="0.5" width="99" height="99" rx="13.5" fill="white" stroke="#E3F1FF"/>
</mask>
<g mask="url(#mask0_850_8012)">
<path d="M49.3244 59.4609C23.615 59.4609 9.45947 84.7118 9.45947 104.056C14.9469 104.056 28.9009 104.056 30.6703 104.056H66.05C67.8196 104.056 84.1339 104.056 89.1892 104.056C89.1892 84.7117 75.0335 59.4609 49.3244 59.4609Z" fill="#E5EBFF"/>
</g>
<path d="M50.0003 54.0527C59.7109 54.0527 67.5677 45.293 67.5677 34.5468C67.5677 24.0714 59.9757 16.2148 50.0003 16.2148C40.0249 16.2148 32.4326 24.0714 32.4326 34.5468C32.4326 45.2932 40.2895 54.0527 50.0003 54.0527Z" fill="#E5EBFF"/>
<path d="M0 67.5664H100V85.9988C100 93.7308 93.732 99.9988 86 99.9988H14C6.26801 99.9988 0 93.7308 0 85.9988V67.5664Z" fill="#E5EBFF" fill-opacity="0.58"/>
<path d="M56.408 78.8396H53.9683V78.5823C53.9683 77.4329 53.0595 76.5 51.9398 76.5H48.0598C46.9396 76.5 46.0312 77.4329 46.0312 78.5823V78.8396H43.5911C42.4708 78.8396 41.5625 79.772 41.5625 80.9219V88.4802C41.5625 89.6296 42.4708 90.5625 43.5911 90.5625H56.4089C57.5292 90.5625 58.4375 89.6296 58.4375 88.4802V80.9219C58.4366 79.7715 57.5282 78.8396 56.408 78.8396ZM49.9991 88.4025C47.8858 88.4025 46.1674 86.6385 46.1674 84.4692C46.1674 82.3004 47.8858 80.536 49.9991 80.536C52.1124 80.536 53.8308 82.2999 53.8308 84.4692C53.8308 86.6385 52.112 88.4025 49.9991 88.4025ZM52.0277 84.4692C52.0277 85.6163 51.1171 86.5515 49.9991 86.5515C48.8811 86.5515 47.9705 85.6163 47.9705 84.4692C47.9705 83.3216 48.8811 82.3869 49.9991 82.3869C51.1171 82.3869 52.0277 83.3216 52.0277 84.4692Z" fill="#12175D"/>
</svg>
