<svg width="9" height="16" viewBox="0 0 9 16" fill="none" xmlns="http://www.w3.org/2000/svg">
    <path fill-rule="evenodd" clip-rule="evenodd"
          d="M8.70679 0.292787C8.89426 0.480314 8.99957 0.734622 8.99957 0.999786C8.99957 1.26495 8.89426 1.51926 8.70679 1.70679L2.41379 7.99979L8.70679 14.2928C8.88894 14.4814 8.98974 14.734 8.98746 14.9962C8.98518 15.2584 8.88001 15.5092 8.6946 15.6946C8.5092 15.88 8.25838 15.9852 7.99619 15.9875C7.73399 15.9897 7.48139 15.8889 7.29279 15.7068L0.292787 8.70679C0.105316 8.51926 0 8.26495 0 7.99979C0 7.73462 0.105316 7.48031 0.292787 7.29279L7.29279 0.292787C7.48031 0.105316 7.73462 0 7.99979 0C8.26495 0 8.51926 0.105316 8.70679 0.292787Z"
          fill="#FD385B"/>
</svg>
