<svg width="19" height="15" viewBox="0 0 19 15" fill="none" xmlns="http://www.w3.org/2000/svg">
<path d="M15.2891 9.17214C15.699 9.17214 16.0312 9.51146 16.0312 9.93012V10.8397C16.0312 11.2584 15.699 11.5977 15.2891 11.5977H13.582C13.1721 11.5977 12.8398 11.2584 12.8398 10.8397V9.93012C12.8398 9.51146 13.1721 9.17214 13.582 9.17214H15.2891ZM17.5156 11.5931V5.53384H1.48438V11.5931C1.48438 12.4289 2.15031 13.109 2.96875 13.109H16.0312C16.8497 13.109 17.5156 12.4289 17.5156 11.5931C17.5156 11.1744 17.8479 10.8351 18.2578 10.8351C18.6678 10.8351 19 11.1744 19 11.5931C19 13.2649 17.6683 14.625 16.0312 14.625H2.96875C1.33173 14.625 0 13.2649 0 11.5931L0 3.40691C0 1.73507 1.33173 0.375 2.96875 0.375H16.0312C17.6683 0.375 19 1.73507 19 3.40691V11.5931C19 12.0118 18.6678 12.3511 18.2578 12.3511C17.8479 12.3511 17.5156 12.0118 17.5156 11.5931ZM17.5156 4.01789V3.40691C17.5156 2.57107 16.8497 1.89096 16.0312 1.89096H2.96875C2.15031 1.89096 1.48438 2.57107 1.48438 3.40691V4.01789H17.5156ZM3.71094 7.0498C3.30099 7.0498 2.96875 7.38912 2.96875 7.80778C2.96875 8.22645 3.30099 8.56576 3.71094 8.56576H9.83398C10.2439 8.56576 10.5762 8.22645 10.5762 7.80778C10.5762 7.38912 10.2439 7.0498 9.83398 7.0498H3.71094Z" fill="white"/>
</svg>
