<svg width="34" height="59" viewBox="0 0 34 59" fill="none" xmlns="http://www.w3.org/2000/svg">
<path d="M34 45.0603C34 49.2183 32.5484 52.5863 29.6452 55.1642C26.7419 57.7214 22.9677 59 18.3226 59H0V14H29.5806V20.7672H8.32258V31.2765H18.0645C22.7742 31.2765 26.6021 32.5551 29.5484 35.1123C32.5161 37.6486 34 40.9647 34 45.0603ZM8.32258 52.3888H16.2258C19.172 52.3888 21.4516 51.7547 23.0645 50.4865C24.6774 49.2183 25.4839 47.4096 25.4839 45.0603C25.4839 42.6902 24.6774 40.8711 23.0645 39.6029C21.4516 38.3347 19.1613 37.7006 16.1935 37.7006H8.32258V52.3888Z" fill="white"/>
<path d="M0 0H29V7H0V0Z" fill="white"/>
</svg>
