<svg width="23" height="23" viewBox="0 0 23 23" fill="none" xmlns="http://www.w3.org/2000/svg">
<g clip-path="url(#clip0_901_4568)">
<path d="M17.9509 10.5048C16.7975 11.1708 15.2913 10.7456 14.6074 9.56096C13.9234 8.37628 14.3083 6.85941 15.4618 6.19344C16.6152 5.52747 18.1213 5.95262 18.8053 7.13729C19.4893 8.32196 19.1044 9.83885 17.9509 10.5048ZM16.1345 7.35867C15.605 7.66437 15.428 8.36212 15.7419 8.90591C16.0559 9.4497 16.7487 9.64527 17.2782 9.33957C17.8077 9.03388 17.9847 8.33613 17.6707 7.79233C17.3568 7.24854 16.6639 7.053 16.1345 7.35867Z" fill="white"/>
<path d="M17.0699 10.2881L18.6621 13.0458C19.5927 14.6577 19.077 16.6904 17.5075 17.5965C15.938 18.5026 13.9199 17.9329 12.9892 16.321L11.0943 13.0389C13.2177 11.4764 13.8326 8.48016 12.4535 6.09144L10.8501 3.31431C10.6595 2.98414 10.2679 2.87364 9.94648 3.05922L8.71737 3.76885L8.69494 3.73C8.50425 3.39988 8.11269 3.28932 7.79122 3.47492C7.46974 3.66052 7.36972 4.05491 7.56032 4.38503L8.27792 5.62796C8.46854 5.95812 8.86011 6.06863 9.18155 5.88304C9.50299 5.69746 9.60305 5.30306 9.41245 4.97293L9.39003 4.93409L10.0519 4.55197L11.3189 6.7465C12.4289 8.66912 11.8055 11.1265 9.93342 12.2073C8.06136 13.2882 5.6215 12.5994 4.51146 10.6768L3.24444 8.48224L3.86846 8.12196L3.89089 8.16081C4.08151 8.49097 4.47308 8.60148 4.79452 8.4159C5.11596 8.23031 5.21602 7.83591 5.02542 7.50578L4.30782 6.26286C4.11726 5.93271 3.72566 5.82217 3.40423 6.00775C3.08279 6.19333 2.98269 6.58776 3.17329 6.91788L3.19571 6.95673L2.00443 7.64452C1.68295 7.83012 1.58293 8.2245 1.77352 8.55463L3.3769 11.3318C4.7336 13.6816 7.56791 14.6606 9.95973 13.694L11.8546 16.976C13.1553 19.2288 15.9867 20.0281 18.1802 18.7617C20.3737 17.4953 21.0972 14.6435 19.7966 12.3907L18.2044 9.63301L17.0699 10.2881L17.0699 10.2881Z" fill="white"/>
</g>
<defs>
<clipPath id="clip0_901_4568">
<rect width="17.9482" height="18.4333" fill="white" transform="translate(0 7.97363) rotate(-30)"/>
</clipPath>
</defs>
</svg>
