<svg width="17" height="16" viewBox="0 0 17 16" fill="none" xmlns="http://www.w3.org/2000/svg">
<path d="M16.0566 7.64408L13.5475 10.6553M9.28125 7.64408H16.0566H9.28125ZM16.0566 7.64408L13.5475 4.63281L16.0566 7.64408Z" stroke="white" stroke-width="1.5" stroke-linecap="round" stroke-linejoin="round"/>
<path d="M10.0338 3.8802V2.50556C10.0338 2.29731 9.99058 2.09133 9.9069 1.90063C9.82322 1.70993 9.70089 1.53867 9.54765 1.39766C9.3944 1.25666 9.21357 1.14897 9.01658 1.08142C8.81959 1.01387 8.61073 0.987911 8.4032 1.0052L2.38067 1.50657C2.0043 1.53792 1.65345 1.70957 1.39771 1.98748C1.14197 2.26539 1.00002 2.62926 1 3.00694V12.2816C1.00002 12.6593 1.14197 13.0232 1.39771 13.3011C1.65345 13.579 2.0043 13.7507 2.38067 13.782L8.4032 14.2841C8.6108 14.3014 8.81972 14.2755 9.01676 14.2079C9.2138 14.1403 9.39466 14.0325 9.54792 13.8914C9.70118 13.7503 9.8235 13.579 9.90713 13.3882C9.99076 13.1974 10.0339 12.9913 10.0338 12.783V11.4084" stroke="white" stroke-width="1.5" stroke-linecap="round" stroke-linejoin="round"/>
</svg>
