<svg width="18" height="19" viewBox="0 0 18 19" fill="none" xmlns="http://www.w3.org/2000/svg">
<g clip-path="url(#clip0_901_4561)">
<path d="M8.05516 10.0834C8.05516 9.81641 8.07914 9.56606 8.1271 9.33241C8.18305 9.0904 8.28297 8.86926 8.42686 8.66898C8.57074 8.46871 8.77458 8.28929 9.03837 8.13074C9.15028 8.05563 9.29416 7.96801 9.47002 7.86787C9.65388 7.76773 9.82974 7.65508 9.9976 7.5299C10.1655 7.39638 10.3054 7.242 10.4173 7.06676C10.5372 6.88317 10.5971 6.67455 10.5971 6.44089C10.5971 6.20723 10.5412 6.01113 10.4293 5.85257C10.3253 5.69402 10.1855 5.57302 10.0096 5.48957C9.84173 5.40612 9.65787 5.3644 9.45803 5.3644C9.22622 5.3644 9.01839 5.41864 8.83453 5.52712C8.65068 5.62726 8.4948 5.75243 8.36691 5.90264C8.23901 6.05285 8.1311 6.20723 8.04317 6.36579L7 5.61474C7.14388 5.2726 7.33973 4.98053 7.58753 4.73853C7.84333 4.49652 8.13509 4.31293 8.46283 4.18776C8.79856 4.06259 9.14628 4 9.506 4C9.80975 4 10.1095 4.05007 10.4053 4.15021C10.701 4.242 10.9688 4.38804 11.2086 4.58832C11.4484 4.7886 11.6403 5.04312 11.7842 5.35188C11.9281 5.66064 12 6.03199 12 6.46592C12 6.73296 11.968 6.97079 11.9041 7.17942C11.8481 7.38804 11.7642 7.5758 11.6523 7.7427C11.5484 7.90125 11.4165 8.04729 11.2566 8.18081C11.0967 8.31433 10.9249 8.44367 10.741 8.56885C10.5332 8.70236 10.3213 8.83171 10.1055 8.95688C9.89768 9.08206 9.72182 9.23227 9.57794 9.40751C9.44205 9.57441 9.3741 9.79972 9.3741 10.0834H8.05516ZM8.07914 13V11.2726H9.41007V13H8.07914Z" fill="white"/>
<circle cx="9" cy="9" r="8.5" stroke="white"/>
</g>
<defs>
<clipPath id="clip0_901_4561">
<rect width="17.9482" height="18.4333" fill="white"/>
</clipPath>
</defs>
</svg>
