<svg width="149" height="50" viewBox="0 0 149 50" fill="none" xmlns="http://www.w3.org/2000/svg">
<path d="M143.481 50H5.51852C2.48333 50 0 47.1875 0 43.75V6.25C0 2.8125 2.48333 -1.08878e-06 5.51852 -1.08878e-06H143.481C146.517 -1.08878e-06 149 2.8125 149 6.25V43.75C149 47.1875 146.517 50 143.481 50Z" fill="black"/>
<path d="M51.1392 18H50.1237V16.6336H46.0662V18H45.0338L45 15.8626H45.495C45.7404 15.6489 45.9365 15.3384 46.0831 14.9313C46.2298 14.5216 46.3243 14.0585 46.3666 13.542L46.5274 11.0763H50.4114V15.8626H51.1942L51.1392 18ZM46.7051 15.8626H49.3452V11.855H47.547L47.4455 13.4198C47.3693 14.4656 47.1225 15.2799 46.7051 15.8626Z" fill="white"/>
<path d="M56.8129 14C56.8129 14.5445 56.7085 15.0229 56.4998 15.4351C56.2911 15.8448 55.9921 16.1603 55.6028 16.3817C55.2164 16.6005 54.7707 16.7099 54.2658 16.7099C53.7666 16.7099 53.3209 16.6005 52.9289 16.3817C52.5396 16.1603 52.2378 15.8461 52.0234 15.4389C51.8119 15.0318 51.7047 14.5623 51.7019 14.0305V13.7176C51.7019 13.1756 51.8076 12.6972 52.0192 12.2824C52.2336 11.8677 52.534 11.5509 52.9204 11.3321C53.3096 11.1107 53.7553 11 54.2574 11C54.7595 11 55.2037 11.1094 55.5901 11.3282C55.9794 11.5445 56.2798 11.8575 56.4913 12.2672C56.7029 12.6743 56.8101 13.1489 56.8129 13.6908V14ZM55.7425 13.7099C55.7425 13.0941 55.6127 12.6221 55.3532 12.2939C55.0965 11.9656 54.7313 11.8015 54.2574 11.8015C53.7948 11.8015 53.4323 11.9656 53.17 12.2939C52.9105 12.6196 52.778 13.0814 52.7723 13.6794V14C52.7723 14.6107 52.9035 15.0827 53.1658 15.416C53.4309 15.7494 53.7976 15.916 54.2658 15.916C54.7397 15.916 55.1036 15.7532 55.3574 15.4275C55.6141 15.1018 55.7425 14.626 55.7425 14V13.7099Z" fill="white"/>
<path d="M62.5797 14.8244C62.5177 15.4173 62.2751 15.8804 61.852 16.2137C61.4289 16.5445 60.8662 16.7099 60.1638 16.7099C59.673 16.7099 59.2401 16.6056 58.8649 16.3969C58.4926 16.1858 58.2049 15.8868 58.0018 15.5C57.7987 15.1132 57.6929 14.6641 57.6845 14.1527V13.6336C57.6845 13.1094 57.7874 12.6476 57.9933 12.2481C58.1992 11.8486 58.494 11.5407 58.8776 11.3244C59.264 11.1081 59.7097 11 60.2146 11C60.8944 11 61.4416 11.1667 61.8562 11.5C62.2709 11.8333 62.512 12.3041 62.5797 12.9122H61.5135C61.4627 12.5127 61.333 12.2252 61.1243 12.0496C60.9184 11.8715 60.6151 11.7824 60.2146 11.7824C59.7492 11.7824 59.391 11.9364 59.1399 12.2443C58.8917 12.5496 58.7648 12.9987 58.7591 13.5916V14.084C58.7591 14.6845 58.8776 15.1425 59.1145 15.458C59.3543 15.7735 59.7041 15.9313 60.1638 15.9313C60.5841 15.9313 60.9 15.8461 61.1116 15.6756C61.3231 15.5051 61.4571 15.2214 61.5135 14.8244H62.5797Z" fill="white"/>
<path d="M67.8642 11.855H65.9434V16.6336H64.8814V11.855H62.9774V11.0763H67.8642V11.855Z" fill="white"/>
<path d="M70.8936 13.9809L72.129 11.0763H73.3179L71.1728 15.687L70.9782 16.0344C70.6962 16.4873 70.2392 16.7137 69.6074 16.7137L69.1674 16.6908L69.1758 15.9275C69.2435 15.9377 69.3634 15.9427 69.5355 15.9427C69.8401 15.9427 70.0545 15.8257 70.1786 15.5916L70.3986 15.1221L68.2915 11.0763H69.4593L70.8936 13.9809Z" fill="white"/>
<path d="M79.0086 16.6336H77.9424V11.855H75.2304V16.6336H74.1641V11.0763H79.0086V16.6336Z" fill="white"/>
<path d="M85.1943 16.6336H84.1281V14.1641H81.3737V16.6336H80.3033V11.0763H81.3737V13.3893H84.1281V11.0763H85.1943V16.6336Z" fill="white"/>
<path d="M91.38 14C91.38 14.5445 91.2756 15.0229 91.0669 15.4351C90.8582 15.8448 90.5592 16.1603 90.1699 16.3817C89.7835 16.6005 89.3379 16.7099 88.833 16.7099C88.3337 16.7099 87.888 16.6005 87.496 16.3817C87.1067 16.1603 86.8049 15.8461 86.5905 15.4389C86.379 15.0318 86.2718 14.5623 86.269 14.0305V13.7176C86.269 13.1756 86.3748 12.6972 86.5863 12.2824C86.8007 11.8677 87.1011 11.5509 87.4875 11.3321C87.8768 11.1107 88.3224 11 88.8245 11C89.3266 11 89.7708 11.1094 90.1573 11.3282C90.5465 11.5445 90.8469 11.8575 91.0584 12.2672C91.27 12.6743 91.3772 13.1489 91.38 13.6908V14ZM90.3096 13.7099C90.3096 13.0941 90.1798 12.6221 89.9203 12.2939C89.6636 11.9656 89.2984 11.8015 88.8245 11.8015C88.3619 11.8015 87.9995 11.9656 87.7371 12.2939C87.4776 12.6196 87.3451 13.0814 87.3394 13.6794V14C87.3394 14.6107 87.4706 15.0827 87.7329 15.416C87.998 15.7494 88.3647 15.916 88.833 15.916C89.3068 15.916 89.6707 15.7532 89.9245 15.4275C90.1812 15.1018 90.3096 14.626 90.3096 14V13.7099Z" fill="white"/>
<path d="M94.604 16.6336V11.0763H96.7153C97.412 11.0763 97.9423 11.2023 98.3061 11.4542C98.67 11.7061 98.8519 12.0814 98.8519 12.5802C98.8519 12.8346 98.7758 13.0636 98.6234 13.2672C98.4711 13.4707 98.2483 13.6285 97.9549 13.7405C98.2878 13.8219 98.5445 13.9758 98.725 14.2023C98.9083 14.4262 99 14.6959 99 15.0115C99 15.5331 98.8138 15.9338 98.4415 16.2137C98.072 16.4936 97.5417 16.6336 96.8507 16.6336H94.604ZM95.6744 14.126V15.8626H96.8634C97.199 15.8626 97.4613 15.7875 97.6503 15.6374C97.8393 15.4873 97.9338 15.2786 97.9338 15.0115C97.9338 14.4338 97.6066 14.1387 96.9522 14.126H95.6744ZM95.6744 13.416H96.7237C97.0566 13.416 97.3161 13.3486 97.5022 13.2137C97.6912 13.0763 97.7857 12.883 97.7857 12.6336C97.7857 12.3588 97.6983 12.1603 97.5234 12.0382C97.3513 11.916 97.082 11.855 96.7153 11.855H95.6744V13.416Z" fill="white"/>
<path d="M143.481 -1.08878e-06H5.51852C2.48333 -1.08878e-06 0 2.8125 0 6.25V43.75C0 47.1875 2.48333 50 5.51852 50H143.481C146.517 50 149 47.1875 149 43.75V6.25C149 2.8125 146.517 -1.08878e-06 143.481 -1.08878e-06ZM143.481 0.999999C146.038 0.999999 148.117 3.3555 148.117 6.25V43.75C148.117 46.645 146.038 49.0005 143.481 49.0005H5.51852C2.96278 49.0005 0.882963 46.645 0.882963 43.75V6.25C0.882963 3.3555 2.96278 0.999999 5.51852 0.999999H143.481Z" fill="#A6A6A6"/>
<path d="M118.064 35.452H120.133V21.5038H118.064V35.452ZM136.699 26.5282L134.328 32.5755H134.257L131.795 26.5282H129.566L133.258 34.9804L131.153 39.6818H133.312L139 26.5282H136.699ZM124.966 33.8677C124.287 33.8677 123.343 33.5269 123.343 32.6831C123.343 31.6065 124.52 31.1938 125.536 31.1938C126.446 31.1938 126.873 31.3912 127.426 31.6607C127.266 32.9525 126.16 33.8677 124.966 33.8677ZM125.215 26.2231C123.717 26.2231 122.166 26.8873 121.524 28.3587L123.36 29.1301C123.753 28.3587 124.484 28.1072 125.251 28.1072C126.321 28.1072 127.409 28.7536 127.426 29.902V30.0454C127.052 29.83 126.25 29.5071 125.269 29.5071C123.289 29.5071 121.274 30.6015 121.274 32.6473C121.274 34.5136 122.897 35.7161 124.715 35.7161C126.107 35.7161 126.873 35.088 127.355 34.3524H127.426V35.4289H129.423V30.0811C129.423 27.6051 127.587 26.2231 125.215 26.2231ZM112.429 28.2262H109.486V23.4451H112.429C113.975 23.4451 114.854 24.7338 114.854 25.8356C114.854 26.9165 113.975 28.2262 112.429 28.2262ZM112.375 21.5038H107.418V35.452H109.486V30.1675H112.375C114.668 30.1675 116.923 28.4968 116.923 25.8356C116.923 23.1744 114.668 21.5038 112.375 21.5038ZM85.3418 33.8703C83.9124 33.8703 82.7157 32.6661 82.7157 31.0121C82.7157 29.3407 83.9124 28.1182 85.3418 28.1182C86.7529 28.1182 87.8604 29.3407 87.8604 31.0121C87.8604 32.6661 86.7529 33.8703 85.3418 33.8703ZM87.7175 27.3092H87.646C87.1817 26.7521 86.2881 26.2488 85.1629 26.2488C82.8049 26.2488 80.6437 28.3338 80.6437 31.0121C80.6437 33.6725 82.8049 35.7396 85.1629 35.7396C86.2881 35.7396 87.1817 35.2362 87.646 34.6614H87.7175V35.3443C87.7175 37.1601 86.7529 38.1307 85.1988 38.1307C83.9306 38.1307 83.1446 37.2136 82.8227 36.4409L81.0188 37.1958C81.5368 38.454 82.9124 40 85.1988 40C87.6282 40 89.6825 38.5617 89.6825 35.0567V26.5365H87.7175V27.3092ZM91.1114 35.452H93.1835V21.5033H91.1114V35.452ZM96.2383 30.8504C96.1846 29.0168 97.6495 28.0823 98.7033 28.0823C99.5255 28.0823 100.222 28.4955 100.454 29.0892L96.2383 30.8504ZM102.669 29.2687C102.276 28.2079 101.079 26.2488 98.6317 26.2488C96.2024 26.2488 94.184 28.1722 94.184 30.9942C94.184 33.6546 96.1846 35.7396 98.8639 35.7396C101.026 35.7396 102.276 34.4094 102.794 33.6367L101.187 32.5579C100.651 33.349 99.9181 33.8703 98.8639 33.8703C97.8101 33.8703 97.06 33.3848 96.5775 32.4324L102.883 29.8078L102.669 29.2687ZM52.4312 27.7049V29.718H57.2184C57.0755 30.8504 56.7004 31.6772 56.1287 32.2525C55.4323 32.9537 54.3425 33.7265 52.4312 33.7265C49.4837 33.7265 47.1795 31.3359 47.1795 28.37C47.1795 25.4041 49.4837 23.0131 52.4312 23.0131C54.0211 23.0131 55.1819 23.6424 56.0394 24.4514L57.4506 23.0314C56.2539 21.8808 54.6639 21 52.4312 21C48.3939 21 45 24.3075 45 28.37C45 32.4324 48.3939 35.7396 52.4312 35.7396C54.6106 35.7396 56.2539 35.021 57.5399 33.6725C58.8618 32.3423 59.2728 30.4729 59.2728 28.9632C59.2728 28.4955 59.2372 28.0645 59.1654 27.7049H52.4312ZM64.7155 33.8703C63.2861 33.8703 62.0535 32.6839 62.0535 30.9942C62.0535 29.2866 63.2861 28.1182 64.7155 28.1182C66.1443 28.1182 67.3769 29.2866 67.3769 30.9942C67.3769 32.6839 66.1443 33.8703 64.7155 33.8703ZM64.7155 26.2488C62.1071 26.2488 59.9814 28.244 59.9814 30.9942C59.9814 33.7265 62.1071 35.7396 64.7155 35.7396C67.3233 35.7396 69.4491 33.7265 69.4491 30.9942C69.4491 28.244 67.3233 26.2488 64.7155 26.2488ZM75.042 33.8703C73.6132 33.8703 72.3804 32.6839 72.3804 30.9942C72.3804 29.2866 73.6132 28.1182 75.042 28.1182C76.4709 28.1182 77.7035 29.2866 77.7035 30.9942C77.7035 32.6839 76.4709 33.8703 75.042 33.8703ZM75.042 26.2488C72.4338 26.2488 70.3084 28.244 70.3084 30.9942C70.3084 33.7265 72.4338 35.7396 75.042 35.7396C77.6499 35.7396 79.7757 33.7265 79.7757 30.9942C79.7757 28.244 77.6499 26.2488 75.042 26.2488Z" fill="white"/>
<path d="M11.5817 38L11.5013 37.9225C11.1861 37.587 11 37.066 11 36.3914V36.5502V12.4511C11 12.4489 11 12.4473 11 12.4456C11 12.4476 11 12.4494 11 12.4515V12.6107C11 11.8802 11.2169 11.33 11.5804 11L25 24.5004L11.5817 38ZM11 12.4442C11 12.3842 11.0016 12.3259 11.0047 12.2685C11.0016 12.3255 11 12.3842 11 12.4442ZM11.0047 12.2659C11.0047 12.2651 11.0047 12.2642 11.005 12.2634C11.0047 12.2642 11.0047 12.2651 11.0047 12.2659ZM11.005 12.2582C11.005 12.2578 11.005 12.2574 11.005 12.2569C11.005 12.2574 11.005 12.2578 11.005 12.2582Z" fill="url(#paint0_linear_901_1787)"/>
<path d="M29.4677 30L29.5697 29.9364L34.8648 26.63C35.3696 26.3146 35.7061 25.9322 35.8739 25.5276C35.7065 25.9322 35.3699 26.315 34.8648 26.6304L29.5697 29.9368L29.4677 30ZM29.469 29.8258L24.999 24.9125L29.4686 20L34.8648 23.3691C35.55 23.797 35.9347 24.3485 35.999 24.912C35.999 24.9125 35.999 24.9134 35.999 24.9143C35.9347 25.4764 35.55 26.0284 34.8648 26.4562L29.469 29.8258Z" fill="url(#paint1_linear_901_1787)"/>
<path d="M12.0312 39C11.6557 39 11.3279 38.8775 11.0724 38.6462L11.0728 38.6458C11.3284 38.8771 11.6565 39 12.0321 39C12.0647 39 12.0978 38.9991 12.1313 38.9975C12.0973 38.9991 12.0638 39 12.0312 39ZM12.0317 38.8405C11.6561 38.841 11.3284 38.7181 11.0728 38.4867V38.4864L24.5167 25L28.999 29.4972L13.2474 38.4753C12.8116 38.7232 12.3987 38.8405 12.0317 38.8405ZM11.069 38.6433C11.0453 38.6216 11.0219 38.5986 10.999 38.5748L11.069 38.6433Z" fill="url(#paint2_linear_901_1787)"/>
<path d="M25.1688 25L10.999 11.5124C11.2684 11.2815 11.6133 11.159 12.0086 11.159C12.3965 11.159 12.832 11.2768 13.2922 11.5252L29.8922 20.5034L25.1688 25ZM29.999 20.4018L13.2922 11.3662C12.832 11.1178 12.3965 11 12.0086 11C12.0068 11 12.0056 11 12.0037 11C12.006 11 12.0077 11 12.0105 11C12.3974 11 12.8324 11.1174 13.2922 11.3658L29.999 20.4018Z" fill="url(#paint3_linear_901_1787)"/>
<path d="M12.1378 39C12.4789 38.9811 12.8565 38.8676 13.2536 38.6501L28.999 30L13.2536 38.6501C12.8568 38.868 12.4789 38.9811 12.1378 39ZM11.0792 38.6615L11.0758 38.6587C11.077 38.6595 11.0783 38.6607 11.0792 38.6615ZM11.0059 38.5927L10.999 38.5862V38.5858C11.0016 38.5882 11.0037 38.5906 11.0059 38.5927Z" fill="black"/>
<path d="M29 30L30 29L29 30Z" fill="url(#paint4_linear_901_1787)"/>
<path d="M12.0902 39C11.6961 39 11.3518 38.8707 11.0836 38.6272L11.0832 38.6277C11.0823 38.6268 11.0809 38.6255 11.0796 38.6246L11.0062 38.5525C11.0039 38.5502 11.0018 38.5476 10.999 38.545L11.0836 38.4599C11.3518 38.7033 11.6957 38.8326 12.0897 38.8322C12.4748 38.8322 12.9081 38.7087 13.3654 38.4478L29.8931 29L29.999 29.1065L29.8918 29.1678L13.3654 38.6152C12.9486 38.8528 12.5523 38.9767 12.1943 38.9974C12.1591 38.9991 12.1244 39 12.0902 39Z" fill="url(#paint5_linear_901_1787)"/>
<path d="M29.1069 29L28.999 28.9119L34.7831 26.2281C35.5177 25.8874 35.9301 25.4478 35.999 25C35.999 25.1643 35.9541 25.3286 35.8649 25.4885C35.685 25.8108 35.3243 26.1153 34.7831 26.3665L29.1069 29Z" fill="url(#paint6_linear_901_1787)"/>
<path d="M35.999 25V24.9995C35.9986 24.3803 35.6456 23.7612 34.9406 23.2914L29.9994 20.0004H29.999L29.9994 20L34.9406 23.2909C35.6464 23.7607 35.9998 24.3808 35.999 25Z" fill="#404040"/>
<path d="M35.999 25C35.9301 24.439 35.5177 23.89 34.7832 23.464L28.999 20.1101L29.1069 20H29.1074L34.7832 23.2915C35.593 23.7615 35.9986 24.3807 35.999 25Z" fill="url(#paint7_linear_901_1787)"/>
<path d="M10.999 13C10.999 12.9996 10.999 12.9991 10.999 12.9987C10.999 12.9991 10.999 12.9996 10.999 13ZM11.0021 12.8192C11.0021 12.8183 11.0021 12.8174 11.0021 12.8165C11.0021 12.8174 11.0021 12.8183 11.0021 12.8192ZM11.0023 12.8139C11.0023 12.8122 11.0023 12.8105 11.0023 12.8087C11.0023 12.8105 11.0023 12.8122 11.0023 12.8139ZM11.0023 12.8074C11.0433 11.6642 11.4391 11.0039 11.999 11C11.7563 11.0022 11.5448 11.1274 11.3793 11.3617V11.3612L11.3773 11.3643C11.3599 11.389 11.3433 11.4152 11.3269 11.4421C11.1409 11.7511 11.0236 12.214 11.0023 12.8074Z" fill="#404040"/>
<path d="M29.8927 20L13.3654 11.4973C12.9072 11.2622 12.4736 11.1506 12.0875 11.1506C11.6938 11.1506 11.3504 11.2666 11.0823 11.4853L10.999 11.4096C11.0253 11.3847 11.052 11.3604 11.08 11.3375C11.0809 11.3367 11.0823 11.3359 11.0832 11.3351C11.3492 11.118 11.6889 11.0021 12.079 11C12.0799 11 12.0812 11 12.0826 11C12.0844 11 12.0856 11 12.0875 11C12.4736 11 12.9072 11.1115 13.3654 11.3468L29.999 19.9038L29.9986 19.9041L29.8927 20Z" fill="url(#paint8_linear_901_1787)"/>
<defs>
<linearGradient id="paint0_linear_901_1787" x1="23.8101" y1="12.1969" x2="5.52308" y2="30.3739" gradientUnits="userSpaceOnUse">
<stop stop-color="#00A0FF"/>
<stop offset="0.00657445" stop-color="#00A1FF"/>
<stop offset="0.2601" stop-color="#00BEFF"/>
<stop offset="0.5122" stop-color="#00D2FF"/>
<stop offset="0.7604" stop-color="#00DFFF"/>
<stop offset="1" stop-color="#00E3FF"/>
</linearGradient>
<linearGradient id="paint1_linear_901_1787" x1="36.8339" y1="24.9132" x2="10.648" y2="24.9132" gradientUnits="userSpaceOnUse">
<stop stop-color="#FFE000"/>
<stop offset="0.4087" stop-color="#FFBD00"/>
<stop offset="0.7754" stop-color="#FFA500"/>
<stop offset="1" stop-color="#FF9C00"/>
</linearGradient>
<linearGradient id="paint2_linear_901_1787" x1="26.6096" y1="27.4987" x2="1.8349" y2="52.1954" gradientUnits="userSpaceOnUse">
<stop stop-color="#FF3A44"/>
<stop offset="1" stop-color="#C31162"/>
</linearGradient>
<linearGradient id="paint3_linear_901_1787" x1="7.32638" y1="3.41834" x2="18.3761" y2="15.0267" gradientUnits="userSpaceOnUse">
<stop stop-color="#32A071"/>
<stop offset="0.0685" stop-color="#2DA771"/>
<stop offset="0.4762" stop-color="#15CF74"/>
<stop offset="0.8009" stop-color="#06E775"/>
<stop offset="1" stop-color="#00F076"/>
</linearGradient>
<linearGradient id="paint4_linear_901_1787" x1="101.258" y1="-49.9458" x2="-155.61" y2="-49.9458" gradientUnits="userSpaceOnUse">
<stop stop-color="#CCB300"/>
<stop offset="0.4087" stop-color="#CC9700"/>
<stop offset="0.7754" stop-color="#CC8400"/>
<stop offset="1" stop-color="#CC7D00"/>
</linearGradient>
<linearGradient id="paint5_linear_901_1787" x1="27.3859" y1="26.8969" x2="1.31525" y2="52.8102" gradientUnits="userSpaceOnUse">
<stop stop-color="#CC2E36"/>
<stop offset="1" stop-color="#9C0E4E"/>
</linearGradient>
<linearGradient id="paint6_linear_901_1787" x1="36.894" y1="24.9991" x2="8.82327" y2="24.9991" gradientUnits="userSpaceOnUse">
<stop stop-color="#E0C500"/>
<stop offset="0.4087" stop-color="#E0A600"/>
<stop offset="0.7754" stop-color="#E09100"/>
<stop offset="1" stop-color="#E08900"/>
</linearGradient>
<linearGradient id="paint7_linear_901_1787" x1="36.894" y1="25.0012" x2="8.82507" y2="25.0012" gradientUnits="userSpaceOnUse">
<stop stop-color="#FFE840"/>
<stop offset="0.4087" stop-color="#FFCE40"/>
<stop offset="0.7754" stop-color="#FFBC40"/>
<stop offset="1" stop-color="#FFB540"/>
</linearGradient>
<linearGradient id="paint8_linear_901_1787" x1="7.42571" y1="3.81996" x2="17.8514" y2="15.3346" gradientUnits="userSpaceOnUse">
<stop stop-color="#65B895"/>
<stop offset="0.0685" stop-color="#62BD95"/>
<stop offset="0.4762" stop-color="#50DB97"/>
<stop offset="0.8009" stop-color="#44ED98"/>
<stop offset="1" stop-color="#40F498"/>
</linearGradient>
</defs>
</svg>
