<svg width="28" height="15" viewBox="0 0 28 15" fill="none" xmlns="http://www.w3.org/2000/svg">
<path fill-rule="evenodd" clip-rule="evenodd" d="M11.1336 3.89912C11.1336 2.2839 12.4117 1 14.0197 1C15.6277 1 16.9058 2.2839 16.9058 3.89912C16.9058 4.89197 16.4229 5.75963 15.6773 6.28088C17.2446 6.89467 18.3811 8.35589 18.5366 10.1119C18.5568 10.3397 18.3703 10.5257 18.1426 10.5257C17.9149 10.5257 17.7327 10.3396 17.7081 10.1122C17.5056 8.23874 15.9419 6.79829 14.0197 6.79829C12.0974 6.79829 10.5336 8.23871 10.3312 10.1122C10.3066 10.3396 10.1244 10.5257 9.8967 10.5257C9.66897 10.5257 9.48246 10.3397 9.50265 10.1119C9.65818 8.35586 10.7948 6.89462 12.3621 6.28085C11.6165 5.75961 11.1336 4.89197 11.1336 3.89912ZM11.9582 3.89912C11.9582 5.05876 12.8653 5.96992 14.0197 5.96992C15.1741 5.96992 16.0812 5.05876 16.0812 3.89912C16.0812 2.73948 15.1741 1.82832 14.0197 1.82832C12.8653 1.82832 11.9582 2.73948 11.9582 3.89912ZM2.63248 7.37346C2.63248 5.75824 3.91058 4.47434 5.51856 4.47434C7.12653 4.47434 8.40463 5.75824 8.40463 7.37346C8.40463 8.36631 7.92173 9.23397 7.17613 9.75522C8.7434 10.369 9.87993 11.8302 10.0355 13.5861C10.0557 13.814 9.86914 14 9.64141 14C9.41374 14 9.23152 13.8139 9.20693 13.5865C9.00467 11.7147 7.44363 10.2753 5.52387 10.2726H5.51856H5.51319C3.59338 10.2752 2.03229 11.7147 1.83003 13.5865C1.80544 13.8139 1.62322 14 1.39554 14C1.16782 14 0.981304 13.814 1.0015 13.5861C1.15708 11.8302 2.29361 10.3689 3.86093 9.75519C3.11539 9.23395 2.63248 8.36629 2.63248 7.37346ZM5.52357 9.44426H5.5185H5.51355C4.36148 9.44162 3.45707 8.53141 3.45707 7.37346C3.45707 6.21383 4.36414 5.30266 5.51856 5.30266C6.67298 5.30266 7.58004 6.21383 7.58004 7.37346C7.57999 8.53143 6.67558 9.44164 5.52357 9.44426ZM22.4816 4.47434C20.8736 4.47434 19.5955 5.75824 19.5955 7.37346C19.5955 8.36629 20.0784 9.23395 20.824 9.75519C19.2566 10.3689 18.1201 11.8302 17.9645 13.5861C17.9443 13.814 18.1309 14 18.3586 14C18.5863 14 18.7685 13.8139 18.7931 13.5865C18.9953 11.7147 20.5564 10.2752 22.4762 10.2726H22.4816H22.4869C24.4067 10.2753 25.9677 11.7147 26.17 13.5865C26.1946 13.8139 26.3768 14 26.6045 14C26.8322 14 27.0187 13.814 26.9985 13.5861C26.843 11.8302 25.7064 10.369 24.1392 9.75522C24.8848 9.23397 25.3677 8.36631 25.3677 7.37346C25.3677 5.75824 24.0896 4.47434 22.4816 4.47434ZM22.4815 9.44426H22.4866C23.6386 9.44164 24.543 8.53143 24.5431 7.37346C24.5431 6.21383 23.6361 5.30266 22.4816 5.30266C21.3271 5.30266 20.4201 6.21383 20.4201 7.37346C20.4201 8.53141 21.3245 9.44162 22.4766 9.44426H22.4815Z" fill="white" stroke="white" stroke-width="0.5"/>
</svg>
