<svg width="15" height="19" viewBox="0 0 15 19" fill="none" xmlns="http://www.w3.org/2000/svg">
<path fill-rule="evenodd" clip-rule="evenodd" d="M0 3.33366C0 2.41318 0.746192 1.66699 1.66667 1.66699H12.5C13.4205 1.66699 14.1667 2.41318 14.1667 3.33366V16.667C14.1667 17.5875 13.4205 18.3337 12.5 18.3337H1.66667C0.746192 18.3337 0 17.5875 0 16.667V3.33366ZM12.5 3.33366H1.66667V16.667H12.5V3.33366Z" fill="white"/>
<path fill-rule="evenodd" clip-rule="evenodd" d="M4.58366 0C5.0439 0 5.41699 0.373096 5.41699 0.833333V3.33333C5.41699 3.79357 5.0439 4.16667 4.58366 4.16667C4.12342 4.16667 3.75033 3.79357 3.75033 3.33333V0.833333C3.75033 0.373096 4.12342 0 4.58366 0ZM9.58366 0C10.0439 0 10.417 0.373096 10.417 0.833333V3.33333C10.417 3.79357 10.0439 4.16667 9.58366 4.16667C9.12342 4.16667 8.75033 3.79357 8.75033 3.33333V0.833333C8.75033 0.373096 9.12342 0 9.58366 0ZM2.91699 7.08333C2.91699 6.6231 3.29009 6.25 3.75033 6.25H10.417C10.8772 6.25 11.2503 6.6231 11.2503 7.08333C11.2503 7.54357 10.8772 7.91667 10.417 7.91667H3.75033C3.29009 7.91667 2.91699 7.54357 2.91699 7.08333ZM2.91699 10.4167C2.91699 9.95643 3.29009 9.58333 3.75033 9.58333H8.75033C9.21056 9.58333 9.58366 9.95643 9.58366 10.4167C9.58366 10.8769 9.21056 11.25 8.75033 11.25H3.75033C3.29009 11.25 2.91699 10.8769 2.91699 10.4167ZM2.91699 13.75C2.91699 13.2898 3.29009 12.9167 3.75033 12.9167H7.08366C7.5439 12.9167 7.91699 13.2898 7.91699 13.75C7.91699 14.2102 7.5439 14.5833 7.08366 14.5833H3.75033C3.29009 14.5833 2.91699 14.2102 2.91699 13.75Z" fill="white"/>
</svg>
