<svg width="23" height="14" viewBox="0 0 23 14" fill="none" xmlns="http://www.w3.org/2000/svg">
<path fill-rule="evenodd" clip-rule="evenodd" d="M11.179 11.8307C9.99493 12.8288 8.45902 13.4312 6.78069 13.4312C3.03582 13.4312 0 10.4316 0 6.73125C0 3.03094 3.03582 0.03125 6.78069 0.03125C8.45902 0.03125 9.99493 0.633748 11.179 1.63179C12.363 0.633748 13.8989 0.03125 15.5773 0.03125C19.3221 0.03125 22.358 3.03094 22.358 6.73125C22.358 10.4316 19.3221 13.4312 15.5773 13.4312C13.8989 13.4312 12.363 12.8288 11.179 11.8307Z" fill="#ED0006"/>
<path fill-rule="evenodd" clip-rule="evenodd" d="M11.1792 11.8307C12.6371 10.6018 13.5616 8.7732 13.5616 6.73125C13.5616 4.68929 12.6371 2.86069 11.1792 1.63179C12.3632 0.633747 13.8992 0.03125 15.5775 0.03125C19.3224 0.03125 22.3582 3.03094 22.3582 6.73125C22.3582 10.4316 19.3224 13.4312 15.5775 13.4312C13.8992 13.4312 12.3632 12.8288 11.1792 11.8307Z" fill="#F9A000"/>
<path fill-rule="evenodd" clip-rule="evenodd" d="M11.1788 11.8317C12.6367 10.6028 13.5611 8.77419 13.5611 6.73225C13.5611 4.69031 12.6367 2.86172 11.1788 1.63281C9.72084 2.86172 8.79639 4.69031 8.79639 6.73225C8.79639 8.77419 9.72084 10.6028 11.1788 11.8317Z" fill="#FF5E00"/>
</svg>
