<svg width="18" height="19" viewBox="0 0 18 19" fill="none" xmlns="http://www.w3.org/2000/svg">
<g clip-path="url(#clip0_901_4599)">
<path d="M16.6154 15.8997L14.1591 13.9622L2.76923 13.9622C2.40201 13.9622 2.04983 13.8185 1.79016 13.5626C1.53049 13.3067 1.38462 12.9596 1.38462 12.5978L1.38461 3.72889C1.38461 3.36701 1.53049 3.01996 1.79016 2.76408C2.04983 2.5082 2.40201 2.36444 2.76923 2.36444L15.2308 2.36444C15.598 2.36444 15.9502 2.5082 16.2098 2.76408C16.4695 3.01996 16.6154 3.36701 16.6154 3.72889L16.6154 15.8997ZM13.6731 15.3267L16.8757 17.8509C16.9775 17.931 17.1002 17.9812 17.2296 17.9956C17.359 18.0101 17.49 17.9883 17.6074 17.9327C17.7249 17.8772 17.824 17.7901 17.8934 17.6815C17.9629 17.5728 17.9998 17.4471 18 17.3187L18 3.72889C18 3.00514 17.7082 2.31104 17.1889 1.79927C16.6696 1.28751 15.9652 1 15.2308 1L2.76923 1C2.03478 1 1.33042 1.28751 0.811089 1.79927C0.291757 2.31104 -4.63205e-07 3.00514 -4.58284e-07 3.72889L-3.97988e-07 12.5978C-3.93067e-07 13.3215 0.291758 14.0156 0.811089 14.5274C1.33042 15.0392 2.03478 15.3267 2.76923 15.3267L13.6731 15.3267Z" fill="white"/>
<path d="M11.4167 9.5L5.58333 9.5C5.19444 9.5 5 9.75 5 10.25C5 10.75 5.19444 11 5.58333 11L11.4167 11C11.8056 11 12 10.75 12 10.25C12 9.75 11.8056 9.5 11.4167 9.5ZM11.4167 5L5.58333 5C5.19444 5 5 5.25 5 5.75C5 6.25 5.19444 6.5 5.58333 6.5L11.4167 6.5C11.8056 6.5 12 6.25 12 5.75C12 5.25 11.8056 5 11.4167 5Z" fill="white"/>
</g>
<defs>
<clipPath id="clip0_901_4599">
<rect width="17.9482" height="18.4333" fill="white"/>
</clipPath>
</defs>
</svg>
