<svg width="22" height="32" viewBox="0 0 22 32" fill="none" xmlns="http://www.w3.org/2000/svg">
<path d="M1.88591 21.7473C3.39384 22.6179 4.54642 23.2834 6.05435 24.154L4.24936 27.2803L2.16514 26.077C1.58885 25.7443 0.853483 25.9422 0.521365 26.5174C0.189247 27.0927 0.385526 27.8285 0.961813 28.1612L7.21448 31.7712C7.79077 32.1039 8.52614 31.906 8.85826 31.3307C9.19038 30.7555 8.9941 30.0197 8.41781 29.687L6.33359 28.4836L8.13858 25.3573C9.64651 26.2279 10.7991 26.8933 12.307 27.7639C12.8833 28.0967 13.6187 27.8987 13.9508 27.3235C14.2829 26.7483 14.0866 26.0124 13.5104 25.6797L12.4682 25.0781L19.6882 12.5727C20.8061 10.6365 20.4076 8.24855 18.8831 6.74726L21.3752 2.43084C21.7073 1.85559 21.511 1.11978 20.9347 0.78706C20.3584 0.454339 19.6231 0.652261 19.291 1.22751L16.7989 5.54393C14.7364 4.9743 12.4692 5.82317 11.3513 7.75941L4.13135 20.2648L3.08923 19.6631C2.51295 19.3304 1.77758 19.5283 1.44546 20.1035C1.11334 20.6788 1.30962 21.4146 1.88591 21.7473ZM13.4355 8.96274C14.0992 7.81329 15.5736 7.41821 16.7231 8.08184C17.8725 8.74548 18.2676 10.2199 17.604 11.3694L16.5619 10.7677C15.9856 10.435 15.2502 10.6329 14.9181 11.2082C14.586 11.7834 14.7823 12.5192 15.3585 12.852L16.4007 13.4536L15.1973 15.5378L14.1552 14.9362C13.5789 14.6035 12.8436 14.8014 12.5114 15.3766C12.1793 15.9519 12.3756 16.6877 12.9519 17.0204L13.994 17.6221L12.7907 19.7063L11.7486 19.1046C11.1723 18.7719 10.4369 18.9698 10.1048 19.5451C9.77267 20.1203 9.96894 20.8561 10.5452 21.1888L11.5873 21.7905L10.384 23.8747L6.21557 21.4681L13.4355 8.96274Z" fill="white"/>
</svg>
