<svg width="18" height="18" viewBox="0 0 18 18" fill="none" xmlns="http://www.w3.org/2000/svg">
<path d="M1.11133 2.44466C1.11133 2.09104 1.2518 1.7519 1.50185 1.50185C1.7519 1.2518 2.09104 1.11133 2.44466 1.11133H13.6807L17.1113 4.31444V15.778C17.1113 16.1316 16.9709 16.4708 16.7208 16.7208C16.4708 16.9709 16.1316 17.1113 15.778 17.1113H2.44466C2.09104 17.1113 1.7519 16.9709 1.50185 16.7208C1.2518 16.4708 1.11133 16.1316 1.11133 15.778V2.44466Z" stroke="white" stroke-width="1.5" stroke-linejoin="round"/>
<path d="M9.11499 1.11133L9.11144 4.39355C9.11144 4.54466 8.91233 4.66688 8.66699 4.66688H5.11144C4.8661 4.66688 4.66699 4.54466 4.66699 4.39355V1.11133H9.11499Z" stroke="white" stroke-width="1.5" stroke-linejoin="round"/>
<path d="M2.44434 1.11133H13.6803M4.66656 10.0002H13.5554M4.66656 13.5558H9.11456" stroke="white" stroke-width="1.5" stroke-linecap="round" stroke-linejoin="round"/>
</svg>
