<svg width="18" height="21" viewBox="0 0 18 21" fill="none" xmlns="http://www.w3.org/2000/svg">
<path fill-rule="evenodd" clip-rule="evenodd" d="M17.775 5.16L12.855 0.21L12.33 0H0.75L0 0.75V9H1.5V1.5H10.5V6.75L11.25 7.5H16.5V9H18V5.7L17.775 5.16ZM12 6V1.5L16.5 6H12ZM0.75 10.5L0 11.25V20.25L0.75 21H17.25L18 20.25V11.25L17.25 10.5H0.75ZM16.5 18V19.5H1.5V12H16.5V18ZM4.5 16.5H4.02V18H3V13.5H4.59C5.715 13.5 6.285 14.04 6.285 15C6.2879 15.204 6.24649 15.4063 6.16362 15.5927C6.08074 15.7792 5.95839 15.9454 5.805 16.08C5.43327 16.3698 4.97096 16.5185 4.5 16.5ZM4.41 14.325H4.02V15.72H4.41C4.95 15.72 5.22 15.48 5.22 15.015C5.22 14.55 4.95 14.325 4.41 14.325ZM10.5 17.37C10.7215 17.1518 10.8948 16.8895 11.0084 16.6001C11.1221 16.3107 11.1738 16.0006 11.16 15.69C11.16 14.19 10.365 13.5 8.76 13.5H7.17V18H8.76C9.07729 18.0154 9.39448 17.9676 9.69316 17.8594C9.99185 17.7513 10.2661 17.5849 10.5 17.37ZM8.175 17.175V14.325H8.67C8.86132 14.3128 9.05311 14.3398 9.23364 14.4043C9.41418 14.4688 9.57967 14.5694 9.72 14.7C9.84713 14.8335 9.94591 14.9914 10.0104 15.1641C10.0748 15.3368 10.1036 15.5208 10.095 15.705C10.1175 16.1004 9.98267 16.4886 9.72 16.785C9.58267 16.9164 9.4202 17.0187 9.24234 17.0857C9.06448 17.1527 8.8749 17.1831 8.685 17.175H8.175ZM14.85 16.26H13.395V18H12.375V13.5H14.985V14.325H13.395V15.435H14.85V16.26Z" fill="#FD385B"/>
</svg>
