<svg width="48" height="48" viewBox="0 0 48 48" fill="none" xmlns="http://www.w3.org/2000/svg">
<path d="M15.2722 43.6364H6.54497C5.96631 43.6364 5.41136 43.4065 5.00219 42.9973C4.59302 42.5882 4.36315 42.0332 4.36315 41.4545V32.7273C4.36315 32.1486 4.13328 31.5937 3.72411 31.1845C3.31494 30.7753 2.75998 30.5455 2.18133 30.5455C1.60268 30.5455 1.04772 30.7753 0.638551 31.1845C0.229381 31.5937 -0.000488281 32.1486 -0.000488281 32.7273V41.4545C-0.000488281 43.1905 0.68912 44.8554 1.91663 46.0829C3.14414 47.3104 4.809 48 6.54497 48H15.2722C15.8509 48 16.4058 47.7701 16.815 47.361C17.2242 46.9518 17.4541 46.3968 17.4541 45.8182C17.4541 45.2395 17.2242 44.6846 16.815 44.2754C16.4058 43.8662 15.8509 43.6364 15.2722 43.6364ZM45.8177 30.5455C45.239 30.5455 44.6841 30.7753 44.2749 31.1845C43.8657 31.5937 43.6359 32.1486 43.6359 32.7273V41.4545C43.6359 42.0332 43.406 42.5882 42.9968 42.9973C42.5877 43.4065 42.0327 43.6364 41.4541 43.6364H32.7268C32.1481 43.6364 31.5932 43.8662 31.184 44.2754C30.7748 44.6846 30.545 45.2395 30.545 45.8182C30.545 46.3968 30.7748 46.9518 31.184 47.361C31.5932 47.7701 32.1481 48 32.7268 48H41.4541C43.19 48 44.8549 47.3104 46.0824 46.0829C47.3099 44.8554 47.9995 43.1905 47.9995 41.4545V32.7273C47.9995 32.1486 47.7696 31.5937 47.3605 31.1845C46.9513 30.7753 46.3964 30.5455 45.8177 30.5455ZM41.4541 0H32.7268C32.1481 0 31.5932 0.229869 31.184 0.63904C30.7748 1.04821 30.545 1.60316 30.545 2.18182C30.545 2.76047 30.7748 3.31543 31.184 3.7246C31.5932 4.13377 32.1481 4.36364 32.7268 4.36364H41.4541C42.0327 4.36364 42.5877 4.59351 42.9968 5.00268C43.406 5.41185 43.6359 5.9668 43.6359 6.54545V15.2727C43.6359 15.8514 43.8657 16.4063 44.2749 16.8155C44.6841 17.2247 45.239 17.4545 45.8177 17.4545C46.3964 17.4545 46.9513 17.2247 47.3605 16.8155C47.7696 16.4063 47.9995 15.8514 47.9995 15.2727V6.54545C47.9995 4.80949 47.3099 3.14463 46.0824 1.91712C44.8549 0.689608 43.19 0 41.4541 0ZM2.18133 17.4545C2.75998 17.4545 3.31494 17.2247 3.72411 16.8155C4.13328 16.4063 4.36315 15.8514 4.36315 15.2727V6.54545C4.36315 5.9668 4.59302 5.41185 5.00219 5.00268C5.41136 4.59351 5.96631 4.36364 6.54497 4.36364H15.2722C15.8509 4.36364 16.4058 4.13377 16.815 3.7246C17.2242 3.31543 17.4541 2.76047 17.4541 2.18182C17.4541 1.60316 17.2242 1.04821 16.815 0.63904C16.4058 0.229869 15.8509 0 15.2722 0H6.54497C4.809 0 3.14414 0.689608 1.91663 1.91712C0.68912 3.14463 -0.000488281 4.80949 -0.000488281 6.54545V15.2727C-0.000488281 15.8514 0.229381 16.4063 0.638551 16.8155C1.04772 17.2247 1.60268 17.4545 2.18133 17.4545ZM19.6359 8.72727H10.9086C10.3299 8.72727 9.77499 8.95714 9.36582 9.36631C8.95665 9.77548 8.72678 10.3304 8.72678 10.9091V19.6364C8.72678 20.215 8.95665 20.77 9.36582 21.1791C9.77499 21.5883 10.3299 21.8182 10.9086 21.8182H19.6359C20.2145 21.8182 20.7695 21.5883 21.1787 21.1791C21.5878 20.77 21.8177 20.215 21.8177 19.6364V10.9091C21.8177 10.3304 21.5878 9.77548 21.1787 9.36631C20.7695 8.95714 20.2145 8.72727 19.6359 8.72727ZM17.4541 17.4545H13.0904V13.0909H17.4541V17.4545ZM28.3631 21.8182H37.0904C37.6691 21.8182 38.224 21.5883 38.6332 21.1791C39.0424 20.77 39.2722 20.215 39.2722 19.6364V10.9091C39.2722 10.3304 39.0424 9.77548 38.6332 9.36631C38.224 8.95714 37.6691 8.72727 37.0904 8.72727H28.3631C27.7845 8.72727 27.2295 8.95714 26.8204 9.36631C26.4112 9.77548 26.1813 10.3304 26.1813 10.9091V19.6364C26.1813 20.215 26.4112 20.77 26.8204 21.1791C27.2295 21.5883 27.7845 21.8182 28.3631 21.8182ZM30.545 13.0909H34.9086V17.4545H30.545V13.0909ZM19.6359 26.1818H10.9086C10.3299 26.1818 9.77499 26.4117 9.36582 26.8209C8.95665 27.23 8.72678 27.785 8.72678 28.3636V37.0909C8.72678 37.6696 8.95665 38.2245 9.36582 38.6337C9.77499 39.0429 10.3299 39.2727 10.9086 39.2727H19.6359C20.2145 39.2727 20.7695 39.0429 21.1787 38.6337C21.5878 38.2245 21.8177 37.6696 21.8177 37.0909V28.3636C21.8177 27.785 21.5878 27.23 21.1787 26.8209C20.7695 26.4117 20.2145 26.1818 19.6359 26.1818ZM17.4541 34.9091H13.0904V30.5455H17.4541V34.9091ZM28.3631 32.7273C28.9418 32.7273 29.4968 32.4974 29.9059 32.0882C30.3151 31.6791 30.545 31.1241 30.545 30.5455C31.1236 30.5455 31.6786 30.3156 32.0877 29.9064C32.4969 29.4972 32.7268 28.9423 32.7268 28.3636C32.7268 27.785 32.4969 27.23 32.0877 26.8209C31.6786 26.4117 31.1236 26.1818 30.545 26.1818H28.3631C27.7845 26.1818 27.2295 26.4117 26.8204 26.8209C26.4112 27.23 26.1813 27.785 26.1813 28.3636V30.5455C26.1813 31.1241 26.4112 31.6791 26.8204 32.0882C27.2295 32.4974 27.7845 32.7273 28.3631 32.7273ZM37.0904 26.1818C36.5118 26.1818 35.9568 26.4117 35.5476 26.8209C35.1385 27.23 34.9086 27.785 34.9086 28.3636V34.9091C34.3299 34.9091 33.775 35.139 33.3658 35.5481C32.9567 35.9573 32.7268 36.5123 32.7268 37.0909C32.7268 37.6696 32.9567 38.2245 33.3658 38.6337C33.775 39.0429 34.3299 39.2727 34.9086 39.2727H37.0904C37.6691 39.2727 38.224 39.0429 38.6332 38.6337C39.0424 38.2245 39.2722 37.6696 39.2722 37.0909V28.3636C39.2722 27.785 39.0424 27.23 38.6332 26.8209C38.224 26.4117 37.6691 26.1818 37.0904 26.1818ZM28.3631 34.9091C27.9316 34.9091 27.5098 35.0371 27.151 35.2768C26.7922 35.5165 26.5125 35.8573 26.3474 36.256C26.1823 36.6546 26.1391 37.0933 26.2233 37.5166C26.3074 37.9398 26.5152 38.3286 26.8204 38.6337C27.1255 38.9388 27.5143 39.1466 27.9375 39.2308C28.3607 39.315 28.7994 39.2718 29.1981 39.1066C29.5968 38.9415 29.9375 38.6619 30.1773 38.3031C30.417 37.9443 30.545 37.5224 30.545 37.0909C30.545 36.5123 30.3151 35.9573 29.9059 35.5481C29.4968 35.139 28.9418 34.9091 28.3631 34.9091Z" fill="white"/>
</svg>
