<svg width="29" height="29" viewBox="0 0 29 29" fill="none" xmlns="http://www.w3.org/2000/svg">
<path d="M28.3707 26.6974L23.5678 22.0016L23.4552 21.8304C23.2459 21.622 22.9597 21.5046 22.661 21.5046C22.3623 21.5046 22.0761 21.622 21.8668 21.8304C17.785 25.5751 11.4955 25.7787 7.16934 22.3061C2.84323 18.8335 1.82296 12.7623 4.78517 8.11891C7.74739 3.47554 13.7729 1.70084 18.8656 3.97179C23.9583 6.24275 26.5379 11.8547 24.8936 17.0857C24.7752 17.4636 24.872 17.8746 25.1475 18.1638C25.4231 18.453 25.8355 18.5766 26.2294 18.4879C26.6234 18.3992 26.939 18.1117 27.0574 17.7338C29.023 11.5261 26.0543 4.84566 20.0718 2.01412C14.0893 -0.817421 6.88826 1.04969 3.12714 6.40761C-0.633984 11.7655 0.173504 19.0063 5.02724 23.4459C9.88098 27.8855 17.3243 28.1916 22.5422 24.1661L26.7948 28.3238C27.234 28.7513 27.944 28.7513 28.3832 28.3238C28.822 27.8902 28.822 27.1921 28.3832 26.7585L28.3707 26.6974Z" fill="white"/>
</svg>
