<svg width="230" height="230" viewBox="0 0 230 230" fill="none" xmlns="http://www.w3.org/2000/svg">
    <path d="M138.141 145.281L137.829 144.969L137.481 145.24C127.519 152.974 114.984 156.62 102.428 155.438C89.8715 154.255 78.2381 148.331 69.8958 138.872C61.5535 129.414 57.1295 117.132 57.5243 104.526C57.9192 91.9203 63.1032 79.939 72.0211 71.0211C80.939 62.1032 92.9203 56.9192 105.526 56.5243C118.132 56.1295 130.414 60.5535 139.872 68.8958C149.331 77.2381 155.255 88.8715 156.438 101.428C157.62 113.984 153.974 126.519 146.24 136.481L145.969 136.829L146.281 137.141L171.654 162.514L171.66 162.52L171.667 162.526C172.233 163.054 172.687 163.689 173.001 164.396C173.316 165.103 173.485 165.865 173.499 166.639C173.513 167.412 173.37 168.18 173.081 168.897C172.791 169.615 172.36 170.266 171.813 170.813C171.266 171.36 170.615 171.791 169.897 172.081C169.18 172.37 168.412 172.513 167.639 172.499C166.865 172.485 166.103 172.316 165.396 172.001C164.689 171.687 164.054 171.233 163.526 170.667L163.52 170.66L163.514 170.654L138.141 145.281ZM133.987 132.979C141.123 125.843 145.132 116.165 145.132 106.073C145.132 95.9816 141.123 86.3034 133.987 79.1676C126.851 72.0318 117.173 68.0229 107.081 68.0229C96.9899 68.0229 87.3117 72.0318 80.1759 79.1676C73.0401 86.3034 69.0313 95.9816 69.0313 106.073C69.0313 116.165 73.0401 125.843 80.1759 132.979C87.3117 140.114 96.9899 144.123 107.081 144.123C117.173 144.123 126.851 140.114 133.987 132.979Z"
          fill="white" stroke="#FD385B"/>
</svg>
