<svg width="20" height="20" viewBox="0 0 20 20" fill="none" xmlns="http://www.w3.org/2000/svg">
<path fill-rule="evenodd" clip-rule="evenodd" d="M17.2629 7.26566H17.6562C18.9486 7.26566 20 8.31707 20 9.60941V10.3907C20 11.683 18.9486 12.7344 17.6562 12.7344H17.2628C17.1593 12.7344 17.0655 12.7996 17.0238 12.9005L17.0179 12.9148C16.9758 13.0161 16.9959 13.1289 17.0691 13.2021L17.3473 13.4803C17.79 13.923 18.0338 14.5115 18.0338 15.1376C18.0338 15.7636 17.79 16.3522 17.3473 16.7948L16.7949 17.3473C16.3522 17.79 15.7637 18.0338 15.1376 18.0338C14.5116 18.0338 13.923 17.79 13.4803 17.3473L13.2021 17.0691C13.1289 16.9959 13.0161 16.9758 12.9148 17.0179L12.8996 17.0242C12.7995 17.0655 12.7344 17.1593 12.7344 17.2627V17.6562C12.7344 18.9486 11.683 20 10.3906 20H9.60938C8.31703 20 7.26562 18.9486 7.26562 17.6562V17.2627C7.26562 17.1593 7.20047 17.0655 7.09957 17.0238L7.08484 17.0177C6.98394 16.9758 6.87102 16.9959 6.79785 17.0691L6.51969 17.3473C6.07703 17.79 5.48848 18.0338 4.86238 18.0338C4.23637 18.0338 3.64777 17.79 3.20508 17.3473L2.65266 16.7948C2.21 16.3521 1.96621 15.7636 1.96621 15.1376C1.96621 14.5115 2.21 13.923 2.6527 13.4803L2.93086 13.2021C3.00406 13.1289 3.02418 13.0161 2.98211 12.9148L2.97516 12.8979C2.93449 12.7995 2.8407 12.7343 2.73719 12.7343H2.34375C1.05141 12.7343 0 11.6829 0 10.3906V9.60934C0 8.31699 1.05141 7.26559 2.34375 7.26559H2.73723C2.8407 7.26559 2.93457 7.20039 2.97621 7.09949L2.98094 7.08809C3.02418 6.98387 3.0041 6.87109 2.9309 6.79785L2.65273 6.51969C1.73887 5.60582 1.73887 4.11895 2.6527 3.20508L3.20512 2.65273C3.64781 2.21004 4.23637 1.96625 4.86242 1.96625C5.48848 1.96625 6.07707 2.21004 6.51973 2.65273L6.79793 2.93094C6.87109 3.00414 6.98398 3.02426 7.0852 2.98215L7.10047 2.97582C7.20051 2.93453 7.26566 2.84074 7.26566 2.73727V2.34375C7.26566 1.05141 8.31707 0 9.60941 0H10.3907C11.683 0 12.7344 1.05141 12.7344 2.34375V2.73727C12.7344 2.84074 12.7996 2.93453 12.9005 2.97621L12.9152 2.9823C13.0161 3.02422 13.1289 3.00414 13.2022 2.9309L13.4804 2.65273C13.923 2.21004 14.5116 1.96625 15.1377 1.96625C15.7637 1.96625 16.3523 2.21004 16.795 2.65273L17.3474 3.20516C18.2612 4.11898 18.2612 5.6059 17.3474 6.51973L17.0691 6.79793C16.996 6.87113 16.9759 6.98391 17.0179 7.08523L17.0249 7.10211C17.0655 7.20047 17.1593 7.26566 17.2629 7.26566ZM17.6562 11.1719C18.087 11.1719 18.4375 10.8214 18.4375 10.3906V9.60938C18.4375 9.17859 18.087 8.82812 17.6562 8.82812H17.2628C16.5243 8.82812 15.8637 8.38375 15.5796 7.69598L15.5737 7.68172C15.2893 6.99691 15.4421 6.21523 15.9642 5.69305L16.2425 5.4148C16.5471 5.1102 16.5471 4.61457 16.2424 4.30996L15.69 3.75754C15.5425 3.61 15.3463 3.52871 15.1376 3.52871C14.9289 3.52871 14.7327 3.60996 14.5852 3.7575L14.307 4.03574C13.7847 4.55785 13.003 4.71062 12.3154 4.42508L12.3049 4.4207C11.6163 4.13641 11.1719 3.47574 11.1719 2.73727V2.34375C11.1719 1.91297 10.8214 1.5625 10.3906 1.5625H9.60938C9.17859 1.5625 8.82812 1.91297 8.82812 2.34375V2.73727C8.82812 3.47574 8.38371 4.13641 7.69594 4.42039L7.68492 4.42496C6.99707 4.71074 6.21531 4.55793 5.69309 4.03582L5.41484 3.75758C5.2673 3.61 5.07113 3.52875 4.86242 3.52875C4.65375 3.52875 4.45758 3.61004 4.30996 3.75758L3.75758 4.31C3.45293 4.61461 3.45293 5.11023 3.75758 5.41488L4.03574 5.69305C4.55789 6.21523 4.7107 6.99695 4.42508 7.68461L4.42145 7.69348C4.13637 8.38375 3.4757 8.82812 2.73723 8.82812H2.34375C1.91297 8.82812 1.5625 9.17859 1.5625 9.60938V10.3906C1.5625 10.8214 1.91297 11.1719 2.34375 11.1719H2.73723C3.47566 11.1719 4.13633 11.6163 4.42039 12.304L4.42547 12.3163C4.71059 13.0037 4.5577 13.785 4.03578 14.307L3.75758 14.5852C3.61 14.7327 3.52875 14.9289 3.52875 15.1376C3.52875 15.3463 3.61 15.5424 3.75758 15.69L4.31 16.2424C4.45754 16.39 4.65375 16.4713 4.86242 16.4713C5.07113 16.4713 5.26727 16.39 5.41484 16.2425L5.69305 15.9642C6.04051 15.6168 6.50301 15.4329 6.97609 15.4329C7.21398 15.4329 7.45449 15.4793 7.68457 15.5749L7.69512 15.5793C8.38371 15.8636 8.82812 16.5243 8.82812 17.2627V17.6562C8.82812 18.087 9.17859 18.4375 9.60938 18.4375H10.3906C10.8214 18.4375 11.1719 18.087 11.1719 17.6562V17.2627C11.1719 16.5243 11.6163 15.8636 12.3041 15.5796L12.3151 15.575C13.003 15.2893 13.7847 15.4421 14.3069 15.9642L14.5852 16.2424C14.7327 16.39 14.9289 16.4713 15.1376 16.4713C15.3463 16.4713 15.5424 16.39 15.69 16.2424L16.2424 15.69C16.39 15.5424 16.4713 15.3463 16.4713 15.1376C16.4713 14.9289 16.39 14.7327 16.2425 14.5852L15.9642 14.307C15.4423 13.785 15.2895 13.0037 15.5745 12.3163L15.5796 12.304C15.8636 11.6163 16.5243 11.1719 17.2628 11.1719H17.6562ZM13.0004 9.99935C13.0004 11.6562 11.6573 12.9993 10.0004 12.9993C8.34358 12.9993 7.00043 11.6562 7.00043 9.99935C7.00043 8.34249 8.34358 6.99935 10.0004 6.99935C11.6573 6.99935 13.0004 8.34249 13.0004 9.99935ZM14.0004 9.99935C14.0004 12.2085 12.2096 13.9993 10.0004 13.9993C7.7913 13.9993 6.00043 12.2085 6.00043 9.99935C6.00043 7.79021 7.7913 5.99935 10.0004 5.99935C12.2096 5.99935 14.0004 7.79021 14.0004 9.99935Z" fill="white"/>
</svg>
