<svg width="19" height="19" viewBox="0 0 19 19" fill="none" xmlns="http://www.w3.org/2000/svg">
<g clip-path="url(#clip0_223_6439)">
<path d="M9.5 0.296875C4.41572 0.296875 0.296875 4.41631 0.296875 9.5C0.296875 14.5837 4.41631 18.7031 9.5 18.7031C14.5843 18.7031 18.7031 14.5837 18.7031 9.5C18.7031 4.41631 14.5837 0.296875 9.5 0.296875ZM14.0202 6.60191L12.5097 13.7198C12.3981 14.2245 12.0977 14.3468 11.6785 14.1093L9.37769 12.4135L8.26797 13.4823C8.14566 13.6046 8.04175 13.7085 7.80425 13.7085L7.96753 11.3667L12.2312 7.5145C12.4171 7.35122 12.1903 7.25859 11.9451 7.42188L6.67553 10.7392L4.40444 10.0302C3.91103 9.87466 3.89975 9.53681 4.50834 9.29931L13.3813 5.87753C13.7934 5.72909 14.1532 5.97788 14.0196 6.60131L14.0202 6.60191Z" fill="#12175D"/>
</g>
<defs>
<clipPath id="clip0_223_6439">
<rect width="19" height="19" fill="white"/>
</clipPath>
</defs>
</svg>
